{"asset":{"version":"2.0","generator":"VECTARY"},"nodes":[{"translation":[0,0.20000000000000004,0],"scale":[0.001,0.001,0.001],"rotation":[-0.7071067811865476,0,0,0.7071067811865476],"name":"Spot Light","extensions":{"KHR_lights_punctual":{"light":0}}},{"translation":[0,0.00020000000298022157,-0.019838925608803105],"scale":[0.001,0.001,0.001],"rotation":[2.220446049250313e-16,0,0,1],"name":"Path","mesh":0},{"translation":[0,0.00020000000298022157,-0.019838925608803105],"scale":[0.001,0.001,0.001],"rotation":[2.220446049250313e-16,0,0,1],"name":"Path","mesh":1},{"translation":[0,0.00020000000298022157,-0.019838925608803105],"scale":[0.001,0.001,0.001],"rotation":[2.220446049250313e-16,0,0,1],"name":"Path","mesh":2}],"extensions":{"KHR_lights_punctual":{"lights":[{"name":"Spot Light","type":"spot","intensity":0.4,"range":10000,"color":[1,1,1],"spot":{"innerConeAngle":0.667588438887831,"outerConeAngle":0.7853981633974483}}]}},"materials":[{"pbrMetallicRoughness":{"baseColorFactor":[0.002585825596234168,0.1701383732233124,0.48776520187781053,1],"metallicFactor":0,"roughnessFactor":1},"name":"Clementine","emissiveFactor":[0,0,0],"extensions":{},"alphaMode":"OPAQUE","doubleSided":true},{"pbrMetallicRoughness":{"baseColorFactor":[0.028991186547107816,0.40982573843632336,0.7299188933520705,1],"metallicFactor":0,"roughnessFactor":1},"name":"Tokyo","emissiveFactor":[0,0,0],"extensions":{},"alphaMode":"OPAQUE","doubleSided":true},{"pbrMetallicRoughness":{"baseColorFactor":[1,1,1,1],"metallicFactor":0,"roughnessFactor":1},"name":"Turbo","emissiveFactor":[0,0,0],"extensions":{},"alphaMode":"OPAQUE","doubleSided":true}],"meshes":[{"primitives":[{"mode":4,"attributes":{"POSITION":1,"NORMAL":2,"TEXCOORD_0":3},"material":0,"indices":0}]},{"primitives":[{"mode":4,"attributes":{"POSITION":5,"NORMAL":6,"TEXCOORD_0":7},"material":1,"indices":4}]},{"primitives":[{"mode":4,"attributes":{"POSITION":9,"NORMAL":10,"TEXCOORD_0":11},"material":2,"indices":8}]}],"accessors":[{"bufferView":0,"byteOffset":0,"componentType":5125,"count":264,"type":"SCALAR"},{"bufferView":1,"byteOffset":0,"componentType":5126,"count":151,"max":[11.920254707336426,33.6389274597168,30.038925170898438],"min":[-11.920254707336426,5.638925552368164,20.038925170898438],"type":"VEC3"},{"bufferView":2,"byteOffset":0,"componentType":5126,"count":151,"type":"VEC3"},{"bufferView":3,"byteOffset":0,"componentType":5126,"count":151,"type":"VEC2"},{"bufferView":4,"byteOffset":0,"componentType":5125,"count":276,"type":"SCALAR"},{"bufferView":5,"byteOffset":0,"componentType":5126,"count":154,"max":[9.909463882446289,31.638925552368164,31.038925170898438],"min":[-4.1086506704734314e-33,7.437200546264648,21.038925170898438],"type":"VEC3"},{"bufferView":6,"byteOffset":0,"componentType":5126,"count":154,"type":"VEC3"},{"bufferView":7,"byteOffset":0,"componentType":5126,"count":154,"type":"VEC2"},{"bufferView":8,"byteOffset":0,"componentType":5125,"count":972,"type":"SCALAR"},{"bufferView":9,"byteOffset":0,"componentType":5126,"count":559,"max":[7.858578681945801,28.138925552368164,32.03892517089844],"min":[-7.335600852966309,10.638925552368164,22.038925170898438],"type":"VEC3"},{"bufferView":10,"byteOffset":0,"componentType":5126,"count":559,"type":"VEC3"},{"bufferView":11,"byteOffset":0,"componentType":5126,"count":559,"type":"VEC2"}],"bufferViews":[{"buffer":0,"byteOffset":0,"byteLength":1056,"target":34963},{"buffer":0,"byteOffset":1056,"byteLength":1812,"target":34962},{"buffer":0,"byteOffset":2868,"byteLength":1812,"target":34962},{"buffer":0,"byteOffset":4680,"byteLength":1208,"target":34962},{"buffer":0,"byteOffset":5888,"byteLength":1104,"target":34963},{"buffer":0,"byteOffset":6992,"byteLength":1848,"target":34962},{"buffer":0,"byteOffset":8840,"byteLength":1848,"target":34962},{"buffer":0,"byteOffset":10688,"byteLength":1232,"target":34962},{"buffer":0,"byteOffset":11920,"byteLength":3888,"target":34963},{"buffer":0,"byteOffset":15808,"byteLength":6708,"target":34962},{"buffer":0,"byteOffset":22516,"byteLength":6708,"target":34962},{"buffer":0,"byteOffset":29224,"byteLength":4472,"target":34962}],"scene":0,"scenes":[{"nodes":[0,1,2,3],"name":"css"}],"extensionsUsed":["KHR_texture_transform","KHR_lights_punctual"],"extensionsRequired":["KHR_lights_punctual"],"buffers":[{"byteLength":33696,"uri":"css.bin"}]}