{"asset":{"version":"2.0","generator":"VECTARY"},"nodes":[{"translation":[0,0.00020000000298022157,-0.01693515974148605],"scale":[0.001,0.001,0.001],"rotation":[2.220446049250313e-16,0,0,1],"name":"Path","mesh":0},{"translation":[0,0.00020000000298022157,-0.01693515974148605],"scale":[0.001,0.001,0.001],"rotation":[2.220446049250313e-16,0,0,1],"name":"Path","mesh":1},{"translation":[0,0.00020000000298022157,-0.01693515974148605],"scale":[0.001,0.001,0.001],"rotation":[2.220446049250313e-16,0,0,1],"name":"Path","mesh":2}],"materials":[{"pbrMetallicRoughness":{"baseColorFactor":[0.7817506777739623,0.07176144884623908,0.015175238159625197,1],"metallicFactor":0,"roughnessFactor":1},"name":"Historic Shade","emissiveFactor":[0,0,0],"extensions":{},"alphaMode":"OPAQUE","doubleSided":true},{"pbrMetallicRoughness":{"baseColorFactor":[0.8831797376727453,0.13035227805624436,0.017936433339950233,1],"metallicFactor":0,"roughnessFactor":1},"name":"Skyla","emissiveFactor":[0,0,0],"extensions":{},"alphaMode":"OPAQUE","doubleSided":true},{"pbrMetallicRoughness":{"baseColorFactor":[1,1,1,1],"metallicFactor":0,"roughnessFactor":1},"name":"Arctic","emissiveFactor":[0,0,0],"extensions":{},"alphaMode":"OPAQUE","doubleSided":true}],"meshes":[{"primitives":[{"mode":4,"attributes":{"POSITION":1,"NORMAL":2,"TEXCOORD_0":3},"material":0,"indices":0}]},{"primitives":[{"mode":4,"attributes":{"POSITION":5,"NORMAL":6,"TEXCOORD_0":7},"material":1,"indices":4}]},{"primitives":[{"mode":4,"attributes":{"POSITION":9,"NORMAL":10,"TEXCOORD_0":11},"material":2,"indices":8}]}],"accessors":[{"bufferView":0,"byteOffset":0,"componentType":5125,"count":264,"type":"SCALAR"},{"bufferView":1,"byteOffset":0,"componentType":5126,"count":151,"max":[11.832534790039062,30.735158920288086,27.135160446166992],"min":[-11.832534790039062,2.7351596355438232,17.135160446166992],"type":"VEC3"},{"bufferView":2,"byteOffset":0,"componentType":5126,"count":151,"type":"VEC3"},{"bufferView":3,"byteOffset":0,"componentType":5126,"count":151,"type":"VEC2"},{"bufferView":4,"byteOffset":0,"componentType":5125,"count":276,"type":"SCALAR"},{"bufferView":5,"byteOffset":0,"componentType":5126,"count":154,"max":[9.809874534606934,28.735158920288086,28.135160446166992],"min":[-8.217301340946863e-33,4.861537456512451,18.135160446166992],"type":"VEC3"},{"bufferView":6,"byteOffset":0,"componentType":5126,"count":154,"type":"VEC3"},{"bufferView":7,"byteOffset":0,"componentType":5126,"count":154,"type":"VEC2"},{"bufferView":8,"byteOffset":0,"componentType":5125,"count":792,"type":"SCALAR"},{"bufferView":9,"byteOffset":0,"componentType":5126,"count":486,"max":[7.75,25.735158920288086,29.135160446166992],"min":[-7.2801618576049805,7.735159873962402,19.135160446166992],"type":"VEC3"},{"bufferView":10,"byteOffset":0,"componentType":5126,"count":486,"type":"VEC3"},{"bufferView":11,"byteOffset":0,"componentType":5126,"count":486,"type":"VEC2"}],"bufferViews":[{"buffer":0,"byteOffset":0,"byteLength":1056,"target":34963},{"buffer":0,"byteOffset":1056,"byteLength":1812,"target":34962},{"buffer":0,"byteOffset":2868,"byteLength":1812,"target":34962},{"buffer":0,"byteOffset":4680,"byteLength":1208,"target":34962},{"buffer":0,"byteOffset":5888,"byteLength":1104,"target":34963},{"buffer":0,"byteOffset":6992,"byteLength":1848,"target":34962},{"buffer":0,"byteOffset":8840,"byteLength":1848,"target":34962},{"buffer":0,"byteOffset":10688,"byteLength":1232,"target":34962},{"buffer":0,"byteOffset":11920,"byteLength":3168,"target":34963},{"buffer":0,"byteOffset":15088,"byteLength":5832,"target":34962},{"buffer":0,"byteOffset":20920,"byteLength":5832,"target":34962},{"buffer":0,"byteOffset":26752,"byteLength":3888,"target":34962}],"scene":0,"scenes":[{"nodes":[0,1,2],"name":"html"}],"extensionsUsed":["KHR_texture_transform"],"buffers":[{"byteLength":30640,"uri":"html.bin"}]}