{"asset":{"version":"2.0","generator":"VECTARY"},"nodes":[{"translation":[0,0.20000000000000004,0],"scale":[0.001,0.001,0.001],"rotation":[-0.7071067811865476,0,0,0.7071067811865476],"name":"Spot Light","extensions":{"KHR_lights_punctual":{"light":0}}},{"translation":[0,0.00020000000298013988,-0.12420609394338769],"scale":[0.001,0.001,0.001],"rotation":[2.220446049250313e-16,0,0,1],"name":"Path","mesh":0}],"extensions":{"KHR_lights_punctual":{"lights":[{"name":"Spot Light","type":"spot","intensity":0.4,"range":10000,"color":[1,1,1],"spot":{"innerConeAngle":0.667588438887831,"outerConeAngle":0.7853981633974483}}]}},"materials":[{"pbrMetallicRoughness":{"baseColorFactor":[1,0.02201299491933654,0.010397802292555288,1],"metallicFactor":0,"roughnessFactor":1},"name":"Monte Carlo","emissiveFactor":[0,0,0],"extensions":{},"alphaMode":"OPAQUE","doubleSided":true}],"meshes":[{"primitives":[{"mode":4,"attributes":{"POSITION":1,"NORMAL":2,"TEXCOORD_0":3},"material":0,"indices":0}]}],"accessors":[{"bufferView":0,"byteOffset":0,"componentType":5125,"count":31434,"type":"SCALAR"},{"bufferView":1,"byteOffset":0,"componentType":5126,"count":18633,"max":[128,255.7759552001953,139.40609741210938],"min":[-128,-7.763765335083008,124.40609741210938],"type":"VEC3"},{"bufferView":2,"byteOffset":0,"componentType":5126,"count":18633,"type":"VEC3"},{"bufferView":3,"byteOffset":0,"componentType":5126,"count":18633,"type":"VEC2"}],"bufferViews":[{"buffer":0,"byteOffset":0,"byteLength":125736,"target":34963},{"buffer":0,"byteOffset":125736,"byteLength":223596,"target":34962},{"buffer":0,"byteOffset":349332,"byteLength":223596,"target":34962},{"buffer":0,"byteOffset":572928,"byteLength":149064,"target":34962}],"scene":0,"scenes":[{"nodes":[0,1],"name":"laravel"}],"extensionsUsed":["KHR_texture_transform","KHR_lights_punctual"],"extensionsRequired":["KHR_lights_punctual"],"buffers":[{"byteLength":721992,"uri":"laravel.bin"}]}