{"asset":{"version":"2.0","generator":"VECTARY"},"nodes":[{"translation":[-0.07755590916539798,0,-0.012919320825864875],"scale":[0.001,0.001,0.001],"rotation":[-0.7071067811865476,0,0,0.7071067811865476],"name":"Point Light","extensions":{"KHR_lights_punctual":{"light":0}}},{"translation":[-0.35179055649835517,0.16467121503290263,-0.01666334208691525],"scale":[1,1,1],"rotation":[-0.1081768085961354,-0.7146974935911868,-0.11342213127214881,0.6816455757020027],"name":"Camera 1","camera":0},{"translation":[0,0.00016811139000486275,-0.012174867495545388],"scale":[0.001,0.001,0.001],"rotation":[-0.7071067811865476,0,0,0.7071067811865476],"name":"Path","mesh":0},{"translation":[0,0.00016811139000486275,-0.012174867495545388],"scale":[0.001,0.001,0.001],"rotation":[-0.7071067811865476,0,0,0.7071067811865476],"name":"Path","mesh":1},{"translation":[0,0.00016811139000486275,-0.012174867495545388],"scale":[0.001,0.001,0.001],"rotation":[-0.7071067811865476,0,0,0.7071067811865476],"name":"Path","mesh":2},{"translation":[0,0.00016811139000486275,-0.012174867495545388],"scale":[0.001,0.001,0.001],"rotation":[-0.7071067811865476,0,0,0.7071067811865476],"name":"Path","mesh":3},{"translation":[0,0.00016811139000486275,-0.012174867495545388],"scale":[0.001,0.001,0.001],"rotation":[-0.7071067811865476,0,0,0.7071067811865476],"name":"Path","mesh":4}],"extensions":{"KHR_lights_punctual":{"lights":[{"name":"Point Light","type":"point","intensity":0.4,"range":10000,"color":[1,1,1]}]}},"cameras":[{"name":"Camera 1","type":"perspective","extras":{"targetDistance":0.3703832473056215},"perspective":{"aspectRatio":1.5130434782608695,"yfov":0.6108652381980153,"zfar":34.037967194333056,"znear":0.011108260567973663}}],"materials":[{"pbrMetallicRoughness":{"baseColorFactor":[0.006584957382581685,0.5113978188848795,0.9913928435929399,1],"metallicFactor":0,"roughnessFactor":1},"name":"Galactica","emissiveFactor":[0,0,0],"extensions":{},"alphaMode":"OPAQUE","doubleSided":true},{"pbrMetallicRoughness":{"baseColorFactor":[0.0008046584995130583,0.6320426176206414,0.23099812432326744,1],"metallicFactor":0,"roughnessFactor":1},"name":"Country Breeze","emissiveFactor":[0,0,0],"extensions":{},"alphaMode":"OPAQUE","doubleSided":true},{"pbrMetallicRoughness":{"baseColorFactor":[1,0.1701383732233124,0.12198571316961948,1],"metallicFactor":0,"roughnessFactor":1},"name":"Cozy Vibe","emissiveFactor":[0,0,0],"extensions":{},"alphaMode":"OPAQUE","doubleSided":true},{"pbrMetallicRoughness":{"baseColorFactor":[0.8912620368134188,0.07382776632778461,0.009021491898012131,1],"metallicFactor":0,"roughnessFactor":1},"name":"Fabulous Fantasy","emissiveFactor":[0,0,0],"extensions":{},"alphaMode":"OPAQUE","doubleSided":true},{"pbrMetallicRoughness":{"baseColorFactor":[0.36859092219748707,0.09868919754109445,1,1],"metallicFactor":0,"roughnessFactor":1},"name":"Himalaya","emissiveFactor":[0,0,0],"extensions":{},"alphaMode":"OPAQUE","doubleSided":true}],"meshes":[{"primitives":[{"mode":4,"attributes":{"POSITION":1,"NORMAL":2,"TEXCOORD_0":3},"material":0,"indices":0}]},{"primitives":[{"mode":4,"attributes":{"POSITION":5,"NORMAL":6,"TEXCOORD_0":7},"material":1,"indices":4}]},{"primitives":[{"mode":4,"attributes":{"POSITION":9,"NORMAL":10,"TEXCOORD_0":11},"material":2,"indices":8}]},{"primitives":[{"mode":4,"attributes":{"POSITION":13,"NORMAL":14,"TEXCOORD_0":15},"material":3,"indices":12}]},{"primitives":[{"mode":4,"attributes":{"POSITION":17,"NORMAL":18,"TEXCOORD_0":19},"material":4,"indices":16}]}],"accessors":[{"bufferView":0,"byteOffset":0,"componentType":5125,"count":13860,"type":"SCALAR"},{"bufferView":1,"byteOffset":0,"componentType":5126,"count":8946,"max":[8,-12.365697860717773,16.00495147705078],"min":[-9.343112221393834e-17,-20.68400764465332,7.985857963562012],"type":"VEC3"},{"bufferView":2,"byteOffset":0,"componentType":5126,"count":8946,"type":"VEC3"},{"bufferView":3,"byteOffset":0,"componentType":5126,"count":8946,"type":"VEC2"},{"bufferView":4,"byteOffset":0,"componentType":5125,"count":13200,"type":"SCALAR"},{"bufferView":5,"byteOffset":0,"componentType":5126,"count":7615,"max":[3.298685109787147e-17,-12.344744682312012,8.00497817993164],"min":[-8,-20.663053512573242,-0.014114631339907646],"type":"VEC3"},{"bufferView":6,"byteOffset":0,"componentType":5126,"count":7615,"type":"VEC3"},{"bufferView":7,"byteOffset":0,"componentType":5126,"count":7615,"type":"VEC2"},{"bufferView":8,"byteOffset":0,"componentType":5125,"count":12336,"type":"SCALAR"},{"bufferView":9,"byteOffset":0,"componentType":5126,"count":6156,"max":[8,-12.386652946472168,24.00492286682129],"min":[-1.5407439555097887e-33,-20.704959869384766,15.985830307006836],"type":"VEC3"},{"bufferView":10,"byteOffset":0,"componentType":5126,"count":6156,"type":"VEC3"},{"bufferView":11,"byteOffset":0,"componentType":5126,"count":6156,"type":"VEC2"},{"bufferView":12,"byteOffset":0,"componentType":5125,"count":12336,"type":"SCALAR"},{"bufferView":13,"byteOffset":0,"componentType":5126,"count":6142,"max":[1.0271626676183578e-33,-12.386652946472168,24.00492286682129],"min":[-8,-20.704959869384766,15.985830307006836],"type":"VEC3"},{"bufferView":14,"byteOffset":0,"componentType":5126,"count":6142,"type":"VEC3"},{"bufferView":15,"byteOffset":0,"componentType":5126,"count":6142,"type":"VEC2"},{"bufferView":16,"byteOffset":0,"componentType":5125,"count":12336,"type":"SCALAR"},{"bufferView":17,"byteOffset":0,"componentType":5126,"count":6142,"max":[2.0543253352367157e-33,-12.36569881439209,16.00495147705078],"min":[-8,-20.684005737304688,7.985857963562012],"type":"VEC3"},{"bufferView":18,"byteOffset":0,"componentType":5126,"count":6142,"type":"VEC3"},{"bufferView":19,"byteOffset":0,"componentType":5126,"count":6142,"type":"VEC2"}],"bufferViews":[{"buffer":0,"byteOffset":0,"byteLength":55440,"target":34963},{"buffer":0,"byteOffset":55440,"byteLength":107352,"target":34962},{"buffer":0,"byteOffset":162792,"byteLength":107352,"target":34962},{"buffer":0,"byteOffset":270144,"byteLength":71568,"target":34962},{"buffer":0,"byteOffset":341712,"byteLength":52800,"target":34963},{"buffer":0,"byteOffset":394512,"byteLength":91380,"target":34962},{"buffer":0,"byteOffset":485892,"byteLength":91380,"target":34962},{"buffer":0,"byteOffset":577272,"byteLength":60920,"target":34962},{"buffer":0,"byteOffset":638192,"byteLength":49344,"target":34963},{"buffer":0,"byteOffset":687536,"byteLength":73872,"target":34962},{"buffer":0,"byteOffset":761408,"byteLength":73872,"target":34962},{"buffer":0,"byteOffset":835280,"byteLength":49248,"target":34962},{"buffer":0,"byteOffset":884528,"byteLength":49344,"target":34963},{"buffer":0,"byteOffset":933872,"byteLength":73704,"target":34962},{"buffer":0,"byteOffset":1007576,"byteLength":73704,"target":34962},{"buffer":0,"byteOffset":1081280,"byteLength":49136,"target":34962},{"buffer":0,"byteOffset":1130416,"byteLength":49344,"target":34963},{"buffer":0,"byteOffset":1179760,"byteLength":73704,"target":34962},{"buffer":0,"byteOffset":1253464,"byteLength":73704,"target":34962},{"buffer":0,"byteOffset":1327168,"byteLength":49136,"target":34962}],"scene":0,"scenes":[{"nodes":[0,1,2,3,4,5,6],"name":"logo"}],"extensionsUsed":["KHR_texture_transform","KHR_lights_punctual"],"extensionsRequired":["KHR_lights_punctual"],"buffers":[{"byteLength":1376304,"uri":"logo.bin"}]}