{"asset":{"version":"2.0","generator":"VECTARY"},"nodes":[{"translation":[0,0.20000000000000004,0],"scale":[0.001,0.001,0.001],"rotation":[-0.7071067811865476,0,0,0.7071067811865476],"name":"Spot Light","extensions":{"KHR_lights_punctual":{"light":0}}},{"translation":[0,0.20000000000000004,0],"scale":[0.001,0.001,0.001],"rotation":[-0.7071067811865476,0,0,0.7071067811865476],"name":"Spot Light 1","extensions":{"KHR_lights_punctual":{"light":1}}},{"translation":[-0.000002046035710954186,0.00015454545684825404,-0.16492961440089016],"scale":[0.001,0.001,0.001],"rotation":[2.220446049250313e-16,0,0,1],"name":"Path","mesh":0},{"translation":[-0.000002046035710954186,0.00015454545684825404,-0.16492961440089016],"scale":[0.001,0.001,0.001],"rotation":[2.220446049250313e-16,0,0,1],"name":"Path","mesh":1},{"translation":[-0.000002046035710954186,0.00015454545684825404,-0.16492961440089016],"scale":[0.001,0.001,0.001],"rotation":[2.220446049250313e-16,0,0,1],"name":"Path","mesh":2}],"extensions":{"KHR_lights_punctual":{"lights":[{"name":"Spot Light","type":"spot","intensity":0.4,"range":10000,"color":[1,1,1],"spot":{"innerConeAngle":0.667588438887831,"outerConeAngle":0.7853981633974483}},{"name":"Spot Light 1","type":"spot","intensity":0.4,"range":10000,"color":[1,1,1],"spot":{"innerConeAngle":0.667588438887831,"outerConeAngle":0.7853981633974483}}]}},"materials":[{"pbrMetallicRoughness":{"baseColorFactor":[0.09868919754109445,0.31118049905798434,0.03287591694838383,1],"metallicFactor":0,"roughnessFactor":1},"name":"Orient","emissiveFactor":[0,0,0],"extensions":{},"alphaMode":"OPAQUE","doubleSided":true},{"pbrMetallicRoughness":{"baseColorFactor":[0.15105804687051058,0.42050792616758714,0.06190747560545576,1],"metallicFactor":0,"roughnessFactor":1},"name":"Esprit","emissiveFactor":[0,0,0],"extensions":{},"alphaMode":"OPAQUE","doubleSided":true},{"pbrMetallicRoughness":{"baseColorFactor":[0.5479935021969718,0.5295232224172772,0.5295232224172772,1],"metallicFactor":0,"roughnessFactor":1},"name":"Adelaide","emissiveFactor":[0,0,0],"extensions":{},"alphaMode":"OPAQUE","doubleSided":true}],"meshes":[{"primitives":[{"mode":4,"attributes":{"POSITION":1,"NORMAL":2,"TEXCOORD_0":3},"material":0,"indices":0}]},{"primitives":[{"mode":4,"attributes":{"POSITION":5,"NORMAL":6,"TEXCOORD_0":7},"material":1,"indices":4}]},{"primitives":[{"mode":4,"attributes":{"POSITION":9,"NORMAL":10,"TEXCOORD_0":11},"material":2,"indices":8}]}],"accessors":[{"bufferView":0,"byteOffset":0,"componentType":5125,"count":10836,"type":"SCALAR"},{"bufferView":1,"byteOffset":0,"componentType":5126,"count":6076,"max":[49.99997329711914,313.9495544433594,180.53871154785156],"min":[-4.686646461486816,54.3259162902832,165.08416748046875],"type":"VEC3"},{"bufferView":2,"byteOffset":0,"componentType":5126,"count":6076,"type":"VEC3"},{"bufferView":3,"byteOffset":0,"componentType":5126,"count":6076,"type":"VEC2"},{"bufferView":4,"byteOffset":0,"componentType":5125,"count":10710,"type":"SCALAR"},{"bufferView":5,"byteOffset":0,"componentType":5126,"count":6114,"max":[2.5801892280578613,314.77508544921875,181.31143188476562],"min":[-49.99997329711914,51.544891357421875,165.8568878173828],"type":"VEC3"},{"bufferView":6,"byteOffset":0,"componentType":5126,"count":6114,"type":"VEC3"},{"bufferView":7,"byteOffset":0,"componentType":5126,"count":6114,"type":"VEC2"},{"bufferView":8,"byteOffset":0,"componentType":5125,"count":13608,"type":"SCALAR"},{"bufferView":9,"byteOffset":0,"componentType":5126,"count":8324,"max":[8.196260452270508,89.21434020996094,182.08416748046875],"min":[-4.332884311676025,14.775040626525879,166.62960815429688],"type":"VEC3"},{"bufferView":10,"byteOffset":0,"componentType":5126,"count":8324,"type":"VEC3"},{"bufferView":11,"byteOffset":0,"componentType":5126,"count":8324,"type":"VEC2"}],"bufferViews":[{"buffer":0,"byteOffset":0,"byteLength":43344,"target":34963},{"buffer":0,"byteOffset":43344,"byteLength":72912,"target":34962},{"buffer":0,"byteOffset":116256,"byteLength":72912,"target":34962},{"buffer":0,"byteOffset":189168,"byteLength":48608,"target":34962},{"buffer":0,"byteOffset":237776,"byteLength":42840,"target":34963},{"buffer":0,"byteOffset":280616,"byteLength":73368,"target":34962},{"buffer":0,"byteOffset":353984,"byteLength":73368,"target":34962},{"buffer":0,"byteOffset":427352,"byteLength":48912,"target":34962},{"buffer":0,"byteOffset":476264,"byteLength":54432,"target":34963},{"buffer":0,"byteOffset":530696,"byteLength":99888,"target":34962},{"buffer":0,"byteOffset":630584,"byteLength":99888,"target":34962},{"buffer":0,"byteOffset":730472,"byteLength":66592,"target":34962}],"scene":0,"scenes":[{"nodes":[0,1,2,3,4],"name":"mongodb"}],"extensionsUsed":["KHR_texture_transform","KHR_lights_punctual"],"extensionsRequired":["KHR_lights_punctual"],"buffers":[{"byteLength":797064,"uri":"mongodb.bin"}]}