{"asset":{"version":"2.0","generator":"VECTARY"},"nodes":[{"translation":[0,0.00020000000298023228,0.0001494994163513184],"scale":[0.001,0.0010000000000000002,0.0010000000000000002],"rotation":[1.1102230246251565e-16,0,0,1],"name":"Path","mesh":0},{"translation":[0,0.00020000000298023228,0.0001494994163513184],"scale":[0.001,0.0010000000000000002,0.0010000000000000002],"rotation":[1.1102230246251565e-16,0,0,1],"name":"Polygon","mesh":1},{"translation":[0,0.00020000000298023228,0.0001494994163513184],"scale":[0.001,0.0010000000000000002,0.0010000000000000002],"rotation":[1.1102230246251565e-16,0,0,1],"name":"Path","mesh":2},{"translation":[0,0.00020000000298023228,0.0001494994163513184],"scale":[0.001,0.0010000000000000002,0.0010000000000000002],"rotation":[1.1102230246251565e-16,0,0,1],"name":"Path","mesh":3},{"translation":[0,0.00020000000298023228,0.0001494994163513184],"scale":[0.001,0.0010000000000000002,0.0010000000000000002],"rotation":[1.1102230246251565e-16,0,0,1],"name":"Path","mesh":4},{"translation":[0,0.00020000000298023228,0.0001494994163513184],"scale":[0.001,0.0010000000000000002,0.0010000000000000002],"rotation":[1.1102230246251565e-16,0,0,1],"name":"Polygon","mesh":5},{"translation":[0,0.00020000000298023228,0.0001494994163513184],"scale":[0.001,0.0010000000000000002,0.0010000000000000002],"rotation":[1.1102230246251565e-16,0,0,1],"name":"Path","mesh":6},{"translation":[0,0.00020000000298023228,0.0001494994163513184],"scale":[0.001,0.0010000000000000002,0.0010000000000000002],"rotation":[1.1102230246251565e-16,0,0,1],"name":"Path","mesh":7},{"translation":[0,0.00020000000298023228,0.0001494994163513184],"scale":[0.001,0.0010000000000000002,0.0010000000000000002],"rotation":[1.1102230246251565e-16,0,0,1],"name":"Path","mesh":8},{"translation":[0,0.00020000000298023228,0.0001494994163513184],"scale":[0.001,0.0010000000000000002,0.0010000000000000002],"rotation":[1.1102230246251565e-16,0,0,1],"name":"Path","mesh":9},{"translation":[0,0.00020000000298023228,0.0001494994163513184],"scale":[0.001,0.0010000000000000002,0.0010000000000000002],"rotation":[1.1102230246251565e-16,0,0,1],"name":"Path","mesh":10},{"translation":[0,0.00020000000298023228,0.0001494994163513184],"scale":[0.001,0.0010000000000000002,0.0010000000000000002],"rotation":[1.1102230246251565e-16,0,0,1],"name":"Path","mesh":11}],"materials":[{"pbrMetallicRoughness":{"baseColorFactor":[0.002262953160706434,0.11129941482466024,0.24279635325400195,1],"metallicFactor":0,"roughnessFactor":1},"name":"Madagascar","emissiveFactor":[0,0,0],"extensions":{},"alphaMode":"OPAQUE","doubleSided":true},{"pbrMetallicRoughness":{"baseColorFactor":[0.7372047873606051,0.25902733248960613,0.0000569217657121931,1],"metallicFactor":0,"roughnessFactor":1},"name":"Excalibur","emissiveFactor":[0,0,0],"extensions":{},"alphaMode":"OPAQUE","doubleSided":true},{"pbrMetallicRoughness":{"baseColorFactor":[0.002262953160706434,0.11129941482466024,0.24279635325400195,1],"metallicFactor":0,"roughnessFactor":1},"name":"Matrix","emissiveFactor":[0,0,0],"extensions":{},"alphaMode":"OPAQUE","doubleSided":true},{"pbrMetallicRoughness":{"baseColorFactor":[0.7372047873606051,0.25902733248960613,0.0000569217657121931,1],"metallicFactor":0,"roughnessFactor":1},"name":"Spring","emissiveFactor":[0,0,0],"extensions":{},"alphaMode":"OPAQUE","doubleSided":true},{"pbrMetallicRoughness":{"baseColorFactor":[0.0016869153167892836,0.08241420588845923,0.18014428915439032,1],"metallicFactor":0,"roughnessFactor":1},"name":"Wild Party","emissiveFactor":[0,0,0],"extensions":{},"alphaMode":"OPAQUE","doubleSided":true},{"pbrMetallicRoughness":{"baseColorFactor":[0.5417983559501369,0.1904628788224093,0.0000569217657121931,1],"metallicFactor":0,"roughnessFactor":1},"name":"Refresh","emissiveFactor":[0,0,0],"extensions":{},"alphaMode":"OPAQUE","doubleSided":true},{"pbrMetallicRoughness":{"baseColorFactor":[0.0016869153167892836,0.08241420588845923,0.18014428915439032,1],"metallicFactor":0,"roughnessFactor":1},"name":"Adonis","emissiveFactor":[0,0,0],"extensions":{},"alphaMode":"OPAQUE","doubleSided":true},{"pbrMetallicRoughness":{"baseColorFactor":[0.5417983559501369,0.1904628788224093,0.0000569217657121931,1],"metallicFactor":0,"roughnessFactor":1},"name":"Paradise","emissiveFactor":[0,0,0],"extensions":{},"alphaMode":"OPAQUE","doubleSided":true},{"pbrMetallicRoughness":{"baseColorFactor":[0.002262953160706434,0.11129941482466024,0.24279635325400195,1],"metallicFactor":0,"roughnessFactor":1},"name":"Maverick","emissiveFactor":[0,0,0],"extensions":{},"alphaMode":"OPAQUE","doubleSided":true},{"pbrMetallicRoughness":{"baseColorFactor":[0.002262953160706434,0.11129941482466024,0.24279635325400195,1],"metallicFactor":0,"roughnessFactor":1},"name":"Garfield","emissiveFactor":[0,0,0],"extensions":{},"alphaMode":"OPAQUE","doubleSided":true},{"pbrMetallicRoughness":{"baseColorFactor":[0.0016869153167892836,0.08241420588845923,0.18014428915439032,1],"metallicFactor":0,"roughnessFactor":1},"name":"Lagoon Glow","emissiveFactor":[0,0,0],"extensions":{},"alphaMode":"OPAQUE","doubleSided":true},{"pbrMetallicRoughness":{"baseColorFactor":[0.0016869153167892836,0.08241420588845923,0.18014428915439032,1],"metallicFactor":0,"roughnessFactor":1},"name":"Glamour","emissiveFactor":[0,0,0],"extensions":{},"alphaMode":"OPAQUE","doubleSided":true}],"meshes":[{"primitives":[{"mode":4,"attributes":{"POSITION":1,"NORMAL":2,"TEXCOORD_0":3},"material":0,"indices":0}]},{"primitives":[{"mode":4,"attributes":{"POSITION":5,"NORMAL":6,"TEXCOORD_0":7},"material":1,"indices":4}]},{"primitives":[{"mode":4,"attributes":{"POSITION":9,"NORMAL":10,"TEXCOORD_0":11},"material":2,"indices":8}]},{"primitives":[{"mode":4,"attributes":{"POSITION":13,"NORMAL":14,"TEXCOORD_0":15},"material":3,"indices":12}]},{"primitives":[{"mode":4,"attributes":{"POSITION":17,"NORMAL":18,"TEXCOORD_0":19},"material":4,"indices":16}]},{"primitives":[{"mode":4,"attributes":{"POSITION":21,"NORMAL":22,"TEXCOORD_0":23},"material":5,"indices":20}]},{"primitives":[{"mode":4,"attributes":{"POSITION":25,"NORMAL":26,"TEXCOORD_0":27},"material":6,"indices":24}]},{"primitives":[{"mode":4,"attributes":{"POSITION":29,"NORMAL":30,"TEXCOORD_0":31},"material":7,"indices":28}]},{"primitives":[{"mode":4,"attributes":{"POSITION":33,"NORMAL":34,"TEXCOORD_0":35},"material":8,"indices":32}]},{"primitives":[{"mode":4,"attributes":{"POSITION":37,"NORMAL":38,"TEXCOORD_0":39},"material":9,"indices":36}]},{"primitives":[{"mode":4,"attributes":{"POSITION":41,"NORMAL":42,"TEXCOORD_0":43},"material":10,"indices":40}]},{"primitives":[{"mode":4,"attributes":{"POSITION":45,"NORMAL":46,"TEXCOORD_0":47},"material":11,"indices":44}]}],"accessors":[{"bufferView":0,"byteOffset":0,"componentType":5125,"count":3216,"type":"SCALAR"},{"bufferView":1,"byteOffset":0,"componentType":5126,"count":2058,"max":[-2.2130002975463867,-2.566500186920166,2],"min":[-5.854000091552734,-7.999500751495361,0],"type":"VEC3"},{"bufferView":2,"byteOffset":0,"componentType":5126,"count":2058,"type":"VEC3"},{"bufferView":3,"byteOffset":0,"componentType":5126,"count":2058,"type":"VEC2"},{"bufferView":4,"byteOffset":0,"componentType":5125,"count":60,"type":"SCALAR"},{"bufferView":5,"byteOffset":0,"componentType":5126,"count":40,"max":[10.11199951171875,-1.143500804901123,3],"min":[7.482000350952148,-6.5715012550354,1],"type":"VEC3"},{"bufferView":6,"byteOffset":0,"componentType":5126,"count":40,"type":"VEC3"},{"bufferView":7,"byteOffset":0,"componentType":5126,"count":40,"type":"VEC2"},{"bufferView":8,"byteOffset":0,"componentType":5125,"count":1584,"type":"SCALAR"},{"bufferView":9,"byteOffset":0,"componentType":5126,"count":1034,"max":[-6.2270002365112305,-1.143500804901123,4],"min":[-12,-6.572500705718994,2],"type":"VEC3"},{"bufferView":10,"byteOffset":0,"componentType":5126,"count":1034,"type":"VEC3"},{"bufferView":11,"byteOffset":0,"componentType":5126,"count":1034,"type":"VEC2"},{"bufferView":12,"byteOffset":0,"componentType":5125,"count":11520,"type":"SCALAR"},{"bufferView":13,"byteOffset":0,"componentType":5126,"count":7571,"max":[6.795999526977539,-1.0605006217956543,5],"min":[-1.6309995651245117,-7.315500736236572,3],"type":"VEC3"},{"bufferView":14,"byteOffset":0,"componentType":5126,"count":7571,"type":"VEC3"},{"bufferView":15,"byteOffset":0,"componentType":5126,"count":7571,"type":"VEC2"},{"bufferView":16,"byteOffset":0,"componentType":5125,"count":3222,"type":"SCALAR"},{"bufferView":17,"byteOffset":0,"componentType":5126,"count":2063,"max":[-2.491000175476074,-3.8585000038146973,6],"min":[-5.854000091552734,-8.00149917602539,4],"type":"VEC3"},{"bufferView":18,"byteOffset":0,"componentType":5126,"count":2063,"type":"VEC3"},{"bufferView":19,"byteOffset":0,"componentType":5126,"count":2063,"type":"VEC2"},{"bufferView":20,"byteOffset":0,"componentType":5125,"count":60,"type":"SCALAR"},{"bufferView":21,"byteOffset":0,"componentType":5126,"count":40,"max":[10.11199951171875,-3.8585000038146973,7],"min":[7.482000350952148,-6.5715012550354,5],"type":"VEC3"},{"bufferView":22,"byteOffset":0,"componentType":5126,"count":40,"type":"VEC3"},{"bufferView":23,"byteOffset":0,"componentType":5126,"count":40,"type":"VEC2"},{"bufferView":24,"byteOffset":0,"componentType":5125,"count":1560,"type":"SCALAR"},{"bufferView":25,"byteOffset":0,"componentType":5126,"count":1044,"max":[-6.2270002365112305,-3.8585000038146973,8],"min":[-12,-6.572500705718994,6],"type":"VEC3"},{"bufferView":26,"byteOffset":0,"componentType":5126,"count":1044,"type":"VEC3"},{"bufferView":27,"byteOffset":0,"componentType":5126,"count":1044,"type":"VEC2"},{"bufferView":28,"byteOffset":0,"componentType":5125,"count":6804,"type":"SCALAR"},{"bufferView":29,"byteOffset":0,"componentType":5126,"count":4280,"max":[6.795000076293945,-3.8585000038146973,9],"min":[-1.6309995651245117,-7.315500736236572,7],"type":"VEC3"},{"bufferView":30,"byteOffset":0,"componentType":5126,"count":4280,"type":"VEC3"},{"bufferView":31,"byteOffset":0,"componentType":5126,"count":4280,"type":"VEC2"},{"bufferView":32,"byteOffset":0,"componentType":5125,"count":1476,"type":"SCALAR"},{"bufferView":33,"byteOffset":0,"componentType":5126,"count":968,"max":[4.666999816894531,6.383499622344971,10],"min":[4.131000518798828,5.753499507904053,8],"type":"VEC3"},{"bufferView":34,"byteOffset":0,"componentType":5126,"count":968,"type":"VEC3"},{"bufferView":35,"byteOffset":0,"componentType":5126,"count":968,"type":"VEC2"},{"bufferView":36,"byteOffset":0,"componentType":5125,"count":21978,"type":"SCALAR"},{"bufferView":37,"byteOffset":0,"componentType":5126,"count":14190,"max":[12,8.000463485717773,11],"min":[2.170999526977539,-1.4685006141662598,9],"type":"VEC3"},{"bufferView":38,"byteOffset":0,"componentType":5126,"count":14190,"type":"VEC3"},{"bufferView":39,"byteOffset":0,"componentType":5126,"count":14190,"type":"VEC2"},{"bufferView":40,"byteOffset":0,"componentType":5125,"count":1488,"type":"SCALAR"},{"bufferView":41,"byteOffset":0,"componentType":5126,"count":970,"max":[4.6660003662109375,6.3824992179870605,12],"min":[4.129999160766602,5.753499507904053,10],"type":"VEC3"},{"bufferView":42,"byteOffset":0,"componentType":5126,"count":970,"type":"VEC3"},{"bufferView":43,"byteOffset":0,"componentType":5126,"count":970,"type":"VEC2"},{"bufferView":44,"byteOffset":0,"componentType":5125,"count":13596,"type":"SCALAR"},{"bufferView":45,"byteOffset":0,"componentType":5126,"count":8758,"max":[6.62700080871582,8.00149917602539,13],"min":[2.171999931335449,0.3364996910095215,11],"type":"VEC3"},{"bufferView":46,"byteOffset":0,"componentType":5126,"count":8758,"type":"VEC3"},{"bufferView":47,"byteOffset":0,"componentType":5126,"count":8758,"type":"VEC2"}],"bufferViews":[{"buffer":0,"byteOffset":0,"byteLength":12864,"target":34963},{"buffer":0,"byteOffset":12864,"byteLength":24696,"target":34962},{"buffer":0,"byteOffset":37560,"byteLength":24696,"target":34962},{"buffer":0,"byteOffset":62256,"byteLength":16464,"target":34962},{"buffer":0,"byteOffset":78720,"byteLength":240,"target":34963},{"buffer":0,"byteOffset":78960,"byteLength":480,"target":34962},{"buffer":0,"byteOffset":79440,"byteLength":480,"target":34962},{"buffer":0,"byteOffset":79920,"byteLength":320,"target":34962},{"buffer":0,"byteOffset":80240,"byteLength":6336,"target":34963},{"buffer":0,"byteOffset":86576,"byteLength":12408,"target":34962},{"buffer":0,"byteOffset":98984,"byteLength":12408,"target":34962},{"buffer":0,"byteOffset":111392,"byteLength":8272,"target":34962},{"buffer":0,"byteOffset":119664,"byteLength":46080,"target":34963},{"buffer":0,"byteOffset":165744,"byteLength":90852,"target":34962},{"buffer":0,"byteOffset":256596,"byteLength":90852,"target":34962},{"buffer":0,"byteOffset":347448,"byteLength":60568,"target":34962},{"buffer":0,"byteOffset":408016,"byteLength":12888,"target":34963},{"buffer":0,"byteOffset":420904,"byteLength":24756,"target":34962},{"buffer":0,"byteOffset":445660,"byteLength":24756,"target":34962},{"buffer":0,"byteOffset":470416,"byteLength":16504,"target":34962},{"buffer":0,"byteOffset":486920,"byteLength":240,"target":34963},{"buffer":0,"byteOffset":487160,"byteLength":480,"target":34962},{"buffer":0,"byteOffset":487640,"byteLength":480,"target":34962},{"buffer":0,"byteOffset":488120,"byteLength":320,"target":34962},{"buffer":0,"byteOffset":488440,"byteLength":6240,"target":34963},{"buffer":0,"byteOffset":494680,"byteLength":12528,"target":34962},{"buffer":0,"byteOffset":507208,"byteLength":12528,"target":34962},{"buffer":0,"byteOffset":519736,"byteLength":8352,"target":34962},{"buffer":0,"byteOffset":528088,"byteLength":27216,"target":34963},{"buffer":0,"byteOffset":555304,"byteLength":51360,"target":34962},{"buffer":0,"byteOffset":606664,"byteLength":51360,"target":34962},{"buffer":0,"byteOffset":658024,"byteLength":34240,"target":34962},{"buffer":0,"byteOffset":692264,"byteLength":5904,"target":34963},{"buffer":0,"byteOffset":698168,"byteLength":11616,"target":34962},{"buffer":0,"byteOffset":709784,"byteLength":11616,"target":34962},{"buffer":0,"byteOffset":721400,"byteLength":7744,"target":34962},{"buffer":0,"byteOffset":729144,"byteLength":87912,"target":34963},{"buffer":0,"byteOffset":817056,"byteLength":170280,"target":34962},{"buffer":0,"byteOffset":987336,"byteLength":170280,"target":34962},{"buffer":0,"byteOffset":1157616,"byteLength":113520,"target":34962},{"buffer":0,"byteOffset":1271136,"byteLength":5952,"target":34963},{"buffer":0,"byteOffset":1277088,"byteLength":11640,"target":34962},{"buffer":0,"byteOffset":1288728,"byteLength":11640,"target":34962},{"buffer":0,"byteOffset":1300368,"byteLength":7760,"target":34962},{"buffer":0,"byteOffset":1308128,"byteLength":54384,"target":34963},{"buffer":0,"byteOffset":1362512,"byteLength":105096,"target":34962},{"buffer":0,"byteOffset":1467608,"byteLength":105096,"target":34962},{"buffer":0,"byteOffset":1572704,"byteLength":70064,"target":34962}],"scene":0,"scenes":[{"nodes":[0,1,2,3,4,5,6,7,8,9,10,11],"name":"mysql"}],"extensionsUsed":["KHR_texture_transform"],"buffers":[{"byteLength":1642768,"uri":"mysql.bin"}]}