{"asset":{"version":"2.0","generator":"VECTARY"},"nodes":[{"translation":[-0.21915259561345632,0.3398630678697608,0],"scale":[0.001,0.001,0.001],"rotation":[-0.685947163943133,-0.2591068248692044,0.288706351561041,0.615620649550423],"name":"Spot Light","extensions":{"KHR_lights_punctual":{"light":0}}},{"translation":[-0.000028003692626953133,0.006807614987621563,-0.1536693955748465],"scale":[0.001,0.001,0.001],"rotation":[-0.021488296601911483,0,0,0.9997690998971456],"name":"Path","mesh":0},{"translation":[-0.000028003692626953133,0.006807614987621563,-0.1536693955748465],"scale":[0.001,0.001,0.001],"rotation":[-0.021488296601911483,0,0,0.9997690998971456],"name":"Path","mesh":1}],"extensions":{"KHR_lights_punctual":{"lights":[{"name":"Spot Light","type":"spot","intensity":0.4,"range":10000,"color":[1,1,1],"spot":{"innerConeAngle":0.667588438887831,"outerConeAngle":0.7853981633974483}}]}},"materials":[{"pbrMetallicRoughness":{"baseColorFactor":[0.267358060183772,0.5859729839496614,0.06772458968542432,1],"metallicFactor":0,"roughnessFactor":1},"name":"Instant Glory","emissiveFactor":[0,0,0],"extensions":{},"alphaMode":"OPAQUE","doubleSided":true},{"pbrMetallicRoughness":{"baseColorFactor":[0.267358060183772,0.5859729839496614,0.06772458968542432,1],"metallicFactor":0,"roughnessFactor":1},"name":"Herbal Scent","emissiveFactor":[0,0,0],"extensions":{},"alphaMode":"OPAQUE","doubleSided":true}],"meshes":[{"primitives":[{"mode":4,"attributes":{"POSITION":1,"NORMAL":2,"TEXCOORD_0":3},"material":0,"indices":0}]},{"primitives":[{"mode":4,"attributes":{"POSITION":5,"NORMAL":6,"TEXCOORD_0":7},"material":1,"indices":4}]}],"accessors":[{"bufferView":0,"byteOffset":0,"componentType":5125,"count":41811,"type":"SCALAR"},{"bufferView":1,"byteOffset":0,"componentType":5126,"count":23439,"max":[127.39599609375,280.6541442871094,175.0426025390625],"min":[-127.39599609375,-0.12334298342466354,160.0426025390625],"type":"VEC3"},{"bufferView":2,"byteOffset":0,"componentType":5126,"count":23439,"type":"VEC3"},{"bufferView":3,"byteOffset":0,"componentType":5126,"count":23439,"type":"VEC2"},{"bufferView":4,"byteOffset":0,"componentType":5125,"count":31308,"type":"SCALAR"},{"bufferView":5,"byteOffset":0,"componentType":5126,"count":17598,"max":[85.03041076660156,195.6362762451172,176.0426025390625],"min":[-23.219463348388672,81.65914154052734,161.0426025390625],"type":"VEC3"},{"bufferView":6,"byteOffset":0,"componentType":5126,"count":17598,"type":"VEC3"},{"bufferView":7,"byteOffset":0,"componentType":5126,"count":17598,"type":"VEC2"}],"bufferViews":[{"buffer":0,"byteOffset":0,"byteLength":167244,"target":34963},{"buffer":0,"byteOffset":167244,"byteLength":281268,"target":34962},{"buffer":0,"byteOffset":448512,"byteLength":281268,"target":34962},{"buffer":0,"byteOffset":729780,"byteLength":187512,"target":34962},{"buffer":0,"byteOffset":917292,"byteLength":125232,"target":34963},{"buffer":0,"byteOffset":1042524,"byteLength":211176,"target":34962},{"buffer":0,"byteOffset":1253700,"byteLength":211176,"target":34962},{"buffer":0,"byteOffset":1464876,"byteLength":140784,"target":34962}],"scene":0,"scenes":[{"nodes":[0,1,2],"name":"node js"}],"extensionsUsed":["KHR_texture_transform","KHR_lights_punctual"],"extensionsRequired":["KHR_lights_punctual"],"buffers":[{"byteLength":1605660,"uri":"nodejs.bin"}]}