{"asset":{"version":"2.0","generator":"VECTARY"},"nodes":[{"translation":[0,-0.117,0.008199999906122678],"scale":[0.001,0.001,0.001],"rotation":[-0.7071067811865476,0,0,0.7071067811865476],"name":"Path","mesh":0},{"translation":[0,-0.117,0.008199999906122678],"scale":[0.001,0.001,0.001],"rotation":[-0.7071067811865476,0,0,0.7071067811865476],"name":"Path","mesh":1}],"materials":[{"pbrMetallicRoughness":{"baseColorFactor":[0,0.009021491898012131,0.03287591694838383,1],"metallicFactor":0,"roughnessFactor":1},"name":"Echo","emissiveFactor":[0,0,0],"extensions":{},"alphaMode":"OPAQUE","doubleSided":true},{"pbrMetallicRoughness":{"baseColorFactor":[0.026548682828472916,0.39929329990267437,1,1],"metallicFactor":0,"roughnessFactor":1},"name":"Florida","emissiveFactor":[0,0,0],"extensions":{},"alphaMode":"OPAQUE","doubleSided":true}],"meshes":[{"primitives":[{"mode":4,"attributes":{"POSITION":1,"NORMAL":2,"TEXCOORD_0":3},"material":0,"indices":0}]},{"primitives":[{"mode":4,"attributes":{"POSITION":5,"NORMAL":6,"TEXCOORD_0":7},"material":1,"indices":4}]}],"accessors":[{"bufferView":0,"byteOffset":0,"componentType":5125,"count":4452,"type":"SCALAR"},{"bufferView":1,"byteOffset":0,"componentType":5126,"count":2424,"max":[120,8,234],"min":[-120,-7,0],"type":"VEC3"},{"bufferView":2,"byteOffset":0,"componentType":5126,"count":2424,"type":"VEC3"},{"bufferView":3,"byteOffset":0,"componentType":5126,"count":2424,"type":"VEC2"},{"bufferView":4,"byteOffset":0,"componentType":5125,"count":66738,"type":"SCALAR"},{"bufferView":5,"byteOffset":0,"componentType":5126,"count":37620,"max":[78.40803527832031,7,174.5],"min":[-66,-8,66.5],"type":"VEC3"},{"bufferView":6,"byteOffset":0,"componentType":5126,"count":37620,"type":"VEC3"},{"bufferView":7,"byteOffset":0,"componentType":5126,"count":37620,"type":"VEC2"}],"bufferViews":[{"buffer":0,"byteOffset":0,"byteLength":17808,"target":34963},{"buffer":0,"byteOffset":17808,"byteLength":29088,"target":34962},{"buffer":0,"byteOffset":46896,"byteLength":29088,"target":34962},{"buffer":0,"byteOffset":75984,"byteLength":19392,"target":34962},{"buffer":0,"byteOffset":95376,"byteLength":266952,"target":34963},{"buffer":0,"byteOffset":362328,"byteLength":451440,"target":34962},{"buffer":0,"byteOffset":813768,"byteLength":451440,"target":34962},{"buffer":0,"byteOffset":1265208,"byteLength":300960,"target":34962}],"scene":0,"scenes":[{"nodes":[0,1],"name":"photoshop"}],"extensionsUsed":["KHR_texture_transform"],"buffers":[{"byteLength":1566168,"uri":"photoshop.bin"}]}