{"asset":{"version":"2.0","generator":"VECTARY"},"nodes":[{"translation":[0,0.00020000000298020027,-0.046681714770792054],"scale":[0.001,0.001,0.001],"rotation":[2.220446049250313e-16,0,0,1],"name":"Path","mesh":0},{"translation":[0,0.00020000000298020027,-0.046681714770792054],"scale":[0.001,0.001,0.001],"rotation":[2.220446049250313e-16,0,0,1],"name":"Path","mesh":1}],"materials":[{"pbrMetallicRoughness":{"baseColorFactor":[0.1390224537347025,0.23489525921588023,0.4995052766030301,1],"metallicFactor":0,"roughnessFactor":1},"name":"Exotic Life","emissiveFactor":[0,0,0],"extensions":{},"alphaMode":"OPAQUE","doubleSided":true},{"pbrMetallicRoughness":{"baseColorFactor":[0,0,0,1],"metallicFactor":0,"roughnessFactor":1},"name":"Cozy Cover","emissiveFactor":[0,0,0],"extensions":{},"alphaMode":"OPAQUE","doubleSided":true}],"meshes":[{"primitives":[{"mode":4,"attributes":{"POSITION":1,"NORMAL":2,"TEXCOORD_0":3},"material":0,"indices":0}]},{"primitives":[{"mode":4,"attributes":{"POSITION":5,"NORMAL":6,"TEXCOORD_0":7},"material":1,"indices":4}]}],"accessors":[{"bufferView":0,"byteOffset":0,"componentType":5125,"count":61710,"type":"SCALAR"},{"bufferView":1,"byteOffset":0,"componentType":5126,"count":36213,"max":[61.439998626708984,77.61671447753906,61.8817138671875],"min":[-61.439998626708984,15.346714973449707,46.8817138671875],"type":"VEC3"},{"bufferView":2,"byteOffset":0,"componentType":5126,"count":36213,"type":"VEC3"},{"bufferView":3,"byteOffset":0,"componentType":5126,"count":36213,"type":"VEC2"},{"bufferView":4,"byteOffset":0,"componentType":5125,"count":26868,"type":"SCALAR"},{"bufferView":5,"byteOffset":0,"componentType":5126,"count":15715,"max":[41.9516716003418,68.7567138671875,62.8817138671875],"min":[-40.998191833496094,28.876712799072266,47.8817138671875],"type":"VEC3"},{"bufferView":6,"byteOffset":0,"componentType":5126,"count":15715,"type":"VEC3"},{"bufferView":7,"byteOffset":0,"componentType":5126,"count":15715,"type":"VEC2"}],"bufferViews":[{"buffer":0,"byteOffset":0,"byteLength":246840,"target":34963},{"buffer":0,"byteOffset":246840,"byteLength":434556,"target":34962},{"buffer":0,"byteOffset":681396,"byteLength":434556,"target":34962},{"buffer":0,"byteOffset":1115952,"byteLength":289704,"target":34962},{"buffer":0,"byteOffset":1405656,"byteLength":107472,"target":34963},{"buffer":0,"byteOffset":1513128,"byteLength":188580,"target":34962},{"buffer":0,"byteOffset":1701708,"byteLength":188580,"target":34962},{"buffer":0,"byteOffset":1890288,"byteLength":125720,"target":34962}],"scene":0,"scenes":[{"nodes":[0,1],"name":"php"}],"extensionsUsed":["KHR_texture_transform"],"buffers":[{"byteLength":2016008,"uri":"php.bin"}]}