{"asset":{"version":"2.0","generator":"VECTARY"},"nodes":[{"translation":[-0.35179055649835517,0.16467121503290263,-0.01666334208691525],"scale":[1,1,1],"rotation":[-0.1081768085961354,-0.7146974935911868,-0.11342213127214881,0.6816455757020027],"name":"Camera 1","camera":0},{"translation":[0,0.06791819906311249,0],"scale":[0.001,0.001,0.001],"rotation":[-0.494455263455678,0.5054839190725815,-0.5054839190725815,0.494455263455678],"name":"Path","mesh":0}],"cameras":[{"name":"Camera 1","type":"perspective","extras":{"targetDistance":0.3703832473056215},"perspective":{"aspectRatio":1.5130434782608695,"yfov":0.6108652381980153,"zfar":34.037967194333056,"znear":0.011108260567973663}}],"materials":[{"pbrMetallicRoughness":{"baseColorFactor":[0,0.6940805197968822,1,1],"metallicFactor":0,"roughnessFactor":1},"name":"Nirvana","emissiveFactor":[0,0,0],"extensions":{},"alphaMode":"OPAQUE","doubleSided":true}],"meshes":[{"primitives":[{"mode":4,"attributes":{"POSITION":1,"NORMAL":2,"TEXCOORD_0":3},"material":0,"indices":0}]}],"accessors":[{"bufferView":0,"byteOffset":0,"componentType":5125,"count":13755,"type":"SCALAR"},{"bufferView":1,"byteOffset":0,"componentType":5126,"count":9075,"max":[61.439998626708984,54.71500015258789,19.399999618530273],"min":[-61.439998626708984,-54.71500015258789,0],"type":"VEC3"},{"bufferView":2,"byteOffset":0,"componentType":5126,"count":9075,"type":"VEC3"},{"bufferView":3,"byteOffset":0,"componentType":5126,"count":9075,"type":"VEC2"}],"bufferViews":[{"buffer":0,"byteOffset":0,"byteLength":55020,"target":34963},{"buffer":0,"byteOffset":55020,"byteLength":108900,"target":34962},{"buffer":0,"byteOffset":163920,"byteLength":108900,"target":34962},{"buffer":0,"byteOffset":272820,"byteLength":72600,"target":34962}],"scene":0,"scenes":[{"nodes":[0,1],"name":"reactJs"}],"extensionsUsed":["KHR_texture_transform"],"buffers":[{"byteLength":345420,"uri":"reactJs.bin"}]}