{"asset":{"version":"2.0","generator":"VECTARY"},"nodes":[{"translation":[0,0.20000000000000004,0],"scale":[0.001,0.001,0.001],"rotation":[-0.7071067811865476,0,0,0.7071067811865476],"name":"Spot Light","extensions":{"KHR_lights_punctual":{"light":0}}},{"translation":[0,0,0],"scale":[0.001,0.001,0.001],"rotation":[-0.7071067811865476,0,0,0.7071067811865476],"name":"scss-svgrepo-com","children":[2]},{"translation":[0,0,21.296215255354312],"scale":[1,1,1],"rotation":[0.6987656829734444,0,0,0.715350627523773],"name":"Path","mesh":0}],"extensions":{"KHR_lights_punctual":{"lights":[{"name":"Spot Light","type":"spot","intensity":0.4,"range":10000,"color":[1,1,1],"spot":{"innerConeAngle":0.667588438887831,"outerConeAngle":0.7853981633974483}}]}},"materials":[{"pbrMetallicRoughness":{"baseColorFactor":[0.6186857274987796,0.13609854973720245,0.3250369625210763,1],"metallicFactor":0,"roughnessFactor":1},"name":"","emissiveFactor":[0,0,0],"extensions":{},"alphaMode":"OPAQUE","doubleSided":true}],"meshes":[{"primitives":[{"mode":4,"attributes":{"POSITION":1,"NORMAL":2,"TEXCOORD_0":3},"material":0,"indices":0}]}],"accessors":[{"bufferView":0,"byteOffset":0,"componentType":5125,"count":18276,"type":"SCALAR"},{"bufferView":1,"byteOffset":0,"componentType":5126,"count":9208,"max":[11.759038925170898,14.002815246582031,15.199999809265137],"min":[-11.761614799499512,-13.969263076782227,0.20000000298023224],"type":"VEC3"},{"bufferView":2,"byteOffset":0,"componentType":5126,"count":9208,"type":"VEC3"},{"bufferView":3,"byteOffset":0,"componentType":5126,"count":9208,"type":"VEC2"}],"bufferViews":[{"buffer":0,"byteOffset":0,"byteLength":73104,"target":34963},{"buffer":0,"byteOffset":73104,"byteLength":110496,"target":34962},{"buffer":0,"byteOffset":183600,"byteLength":110496,"target":34962},{"buffer":0,"byteOffset":294096,"byteLength":73664,"target":34962}],"scene":0,"scenes":[{"nodes":[0,1],"name":"scss"}],"extensionsUsed":["KHR_texture_transform","KHR_lights_punctual"],"extensionsRequired":["KHR_lights_punctual"],"buffers":[{"byteLength":367760,"uri":"scss.bin"}]}