{"asset":{"version":"2.0","generator":"VECTARY"},"nodes":[{"translation":[0.09531092870408733,0.11349254946139543,0],"scale":[0.001,0.001,0.001],"rotation":[-0.660824188544879,0.44715190333502436,-0.25161755072729414,0.5477729231569092],"name":"Directional Light","extensions":{"KHR_lights_punctual":{"light":0}}},{"translation":[0,0.00020000000298021092,-0.04244161159714195],"scale":[0.001,0.001,0.001],"rotation":[2.220446049250313e-16,0,0,1],"name":"Path","mesh":0},{"translation":[0,0.00020000000298021092,-0.04244161159714195],"scale":[0.001,0.001,0.001],"rotation":[2.220446049250313e-16,0,0,1],"name":"Path","mesh":1},{"translation":[0,0.00020000000298021092,-0.04244161159714195],"scale":[0.001,0.001,0.001],"rotation":[2.220446049250313e-16,0,0,1],"name":"Path","mesh":2},{"translation":[0,0.00020000000298021092,-0.04244161159714195],"scale":[0.001,0.001,0.001],"rotation":[2.220446049250313e-16,0,0,1],"name":"Path","mesh":3},{"translation":[0,0.00020000000298021092,-0.04244161159714195],"scale":[0.001,0.001,0.001],"rotation":[2.220446049250313e-16,0,0,1],"name":"Path","mesh":4},{"translation":[0,0.00020000000298021092,-0.04244161159714195],"scale":[0.001,0.001,0.001],"rotation":[2.220446049250313e-16,0,0,1],"name":"Path","mesh":5},{"translation":[0,0.00020000000298021092,-0.04244161159714195],"scale":[0.001,0.001,0.001],"rotation":[2.220446049250313e-16,0,0,1],"name":"Path","mesh":6},{"translation":[0,0.00020000000298021092,-0.04244161159714195],"scale":[0.001,0.001,0.001],"rotation":[2.220446049250313e-16,0,0,1],"name":"Path","mesh":7}],"extensions":{"KHR_lights_punctual":{"lights":[{"name":"Directional Light","type":"directional","intensity":0.4,"color":[1,1,1]}]}},"materials":[{"pbrMetallicRoughness":{"baseColorFactor":[0.8122414898984895,0.18354899846495082,0.02201299491933654,1],"metallicFactor":0,"roughnessFactor":1},"name":"Quiet Passion","emissiveFactor":[0,0,0],"extensions":{},"alphaMode":"OPAQUE","doubleSided":true},{"pbrMetallicRoughness":{"baseColorFactor":[0.5795466117825252,0.010397802292555288,0.03423020656508195,1],"metallicFactor":0,"roughnessFactor":1},"name":"Floral Scent","emissiveFactor":[0,0,0],"extensions":{},"alphaMode":"OPAQUE","doubleSided":true},{"pbrMetallicRoughness":{"baseColorFactor":[0.10363409665513738,0.24680041960155044,0.33445780792388924,1],"metallicFactor":0,"roughnessFactor":1},"name":"First Impression","emissiveFactor":[0,0,0],"extensions":{},"alphaMode":"OPAQUE","doubleSided":true},{"pbrMetallicRoughness":{"baseColorFactor":[0.1061560678127439,0.1332085131842997,0.29321614913237454,1],"metallicFactor":0,"roughnessFactor":1},"name":"Zanzibar","emissiveFactor":[0,0,0],"extensions":{},"alphaMode":"OPAQUE","doubleSided":true},{"pbrMetallicRoughness":{"baseColorFactor":[0.8355277914608409,0.2888159727972186,0.017936433339950233,1],"metallicFactor":0,"roughnessFactor":1},"name":"Independence","emissiveFactor":[0,0,0],"extensions":{},"alphaMode":"OPAQUE","doubleSided":true},{"pbrMetallicRoughness":{"baseColorFactor":[0.1061560678127439,0.1332085131842997,0.29321614913237454,1],"metallicFactor":0,"roughnessFactor":1},"name":"Bolognese","emissiveFactor":[0,0,0],"extensions":{},"alphaMode":"OPAQUE","doubleSided":true},{"pbrMetallicRoughness":{"baseColorFactor":[0.009696328701658229,0.05637409755197975,0.2120443975022877,1],"metallicFactor":0,"roughnessFactor":1},"name":"Maverick","emissiveFactor":[0,0,0],"extensions":{},"alphaMode":"OPAQUE","doubleSided":true},{"pbrMetallicRoughness":{"baseColorFactor":[0.1668722718907655,0.3250369625210763,0.38891025653905886,1],"metallicFactor":0,"roughnessFactor":1},"name":"Artemis","emissiveFactor":[0,0,0],"extensions":{},"alphaMode":"OPAQUE","doubleSided":true}],"meshes":[{"primitives":[{"mode":4,"attributes":{"POSITION":1,"NORMAL":2,"TEXCOORD_0":3},"material":0,"indices":0}]},{"primitives":[{"mode":4,"attributes":{"POSITION":5,"NORMAL":6,"TEXCOORD_0":7},"material":1,"indices":4}]},{"primitives":[{"mode":4,"attributes":{"POSITION":9,"NORMAL":10,"TEXCOORD_0":11},"material":2,"indices":8}]},{"primitives":[{"mode":4,"attributes":{"POSITION":13,"NORMAL":14,"TEXCOORD_0":15},"material":3,"indices":12}]},{"primitives":[{"mode":4,"attributes":{"POSITION":17,"NORMAL":18,"TEXCOORD_0":19},"material":4,"indices":16}]},{"primitives":[{"mode":4,"attributes":{"POSITION":21,"NORMAL":22,"TEXCOORD_0":23},"material":5,"indices":20}]},{"primitives":[{"mode":4,"attributes":{"POSITION":25,"NORMAL":26,"TEXCOORD_0":27},"material":6,"indices":24}]},{"primitives":[{"mode":4,"attributes":{"POSITION":29,"NORMAL":30,"TEXCOORD_0":31},"material":7,"indices":28}]}],"accessors":[{"bufferView":0,"byteOffset":0,"componentType":5125,"count":636,"type":"SCALAR"},{"bufferView":1,"byteOffset":0,"componentType":5126,"count":379,"max":[9.94999885559082,52.99161148071289,57.6416130065918],"min":[-9.850000381469727,31.791610717773438,42.6416130065918],"type":"VEC3"},{"bufferView":2,"byteOffset":0,"componentType":5126,"count":379,"type":"VEC3"},{"bufferView":3,"byteOffset":0,"componentType":5126,"count":379,"type":"VEC2"},{"bufferView":4,"byteOffset":0,"componentType":5125,"count":636,"type":"SCALAR"},{"bufferView":5,"byteOffset":0,"componentType":5126,"count":383,"max":[-6.75,37.3916130065918,58.6416130065918],"min":[-24.349998474121094,18.791610717773438,43.6416130065918],"type":"VEC3"},{"bufferView":6,"byteOffset":0,"componentType":5126,"count":383,"type":"VEC3"},{"bufferView":7,"byteOffset":0,"componentType":5126,"count":383,"type":"VEC2"},{"bufferView":8,"byteOffset":0,"componentType":5125,"count":636,"type":"SCALAR"},{"bufferView":9,"byteOffset":0,"componentType":5126,"count":383,"max":[24.44999885559082,66.19161224365234,59.6416130065918],"min":[6.750001907348633,47.691612243652344,44.6416130065918],"type":"VEC3"},{"bufferView":10,"byteOffset":0,"componentType":5126,"count":383,"type":"VEC3"},{"bufferView":11,"byteOffset":0,"componentType":5126,"count":383,"type":"VEC2"},{"bufferView":12,"byteOffset":0,"componentType":5125,"count":636,"type":"SCALAR"},{"bufferView":13,"byteOffset":0,"componentType":5126,"count":391,"max":[6.350000381469727,25.99161148071289,60.6416130065918],"min":[-6.149999618530273,12.49161148071289,45.6416130065918],"type":"VEC3"},{"bufferView":14,"byteOffset":0,"componentType":5126,"count":391,"type":"VEC3"},{"bufferView":15,"byteOffset":0,"componentType":5126,"count":391,"type":"VEC2"},{"bufferView":16,"byteOffset":0,"componentType":5125,"count":636,"type":"SCALAR"},{"bufferView":17,"byteOffset":0,"componentType":5126,"count":382,"max":[-6.75,66.19161224365234,61.6416130065918],"min":[-24.349998474121094,47.691612243652344,46.6416130065918],"type":"VEC3"},{"bufferView":18,"byteOffset":0,"componentType":5126,"count":382,"type":"VEC3"},{"bufferView":19,"byteOffset":0,"componentType":5126,"count":382,"type":"VEC2"},{"bufferView":20,"byteOffset":0,"componentType":5125,"count":636,"type":"SCALAR"},{"bufferView":21,"byteOffset":0,"componentType":5126,"count":383,"max":[30.149999618530273,49.09161376953125,62.6416130065918],"min":[17.649999618530273,35.691612243652344,47.6416130065918],"type":"VEC3"},{"bufferView":22,"byteOffset":0,"componentType":5126,"count":383,"type":"VEC3"},{"bufferView":23,"byteOffset":0,"componentType":5126,"count":383,"type":"VEC2"},{"bufferView":24,"byteOffset":0,"componentType":5125,"count":636,"type":"SCALAR"},{"bufferView":25,"byteOffset":0,"componentType":5126,"count":383,"max":[24.44999885559082,37.3916130065918,63.6416130065918],"min":[6.750001907348633,18.791610717773438,48.6416130065918],"type":"VEC3"},{"bufferView":26,"byteOffset":0,"componentType":5126,"count":383,"type":"VEC3"},{"bufferView":27,"byteOffset":0,"componentType":5126,"count":383,"type":"VEC2"},{"bufferView":28,"byteOffset":0,"componentType":5125,"count":1272,"type":"SCALAR"},{"bufferView":29,"byteOffset":0,"componentType":5126,"count":814,"max":[5.94999885559082,71.99161529541016,64.64160919189453],"min":[-30.149999618530273,36.091609954833984,49.6416130065918],"type":"VEC3"},{"bufferView":30,"byteOffset":0,"componentType":5126,"count":814,"type":"VEC3"},{"bufferView":31,"byteOffset":0,"componentType":5126,"count":814,"type":"VEC2"}],"bufferViews":[{"buffer":0,"byteOffset":0,"byteLength":2544,"target":34963},{"buffer":0,"byteOffset":2544,"byteLength":4548,"target":34962},{"buffer":0,"byteOffset":7092,"byteLength":4548,"target":34962},{"buffer":0,"byteOffset":11640,"byteLength":3032,"target":34962},{"buffer":0,"byteOffset":14672,"byteLength":2544,"target":34963},{"buffer":0,"byteOffset":17216,"byteLength":4596,"target":34962},{"buffer":0,"byteOffset":21812,"byteLength":4596,"target":34962},{"buffer":0,"byteOffset":26408,"byteLength":3064,"target":34962},{"buffer":0,"byteOffset":29472,"byteLength":2544,"target":34963},{"buffer":0,"byteOffset":32016,"byteLength":4596,"target":34962},{"buffer":0,"byteOffset":36612,"byteLength":4596,"target":34962},{"buffer":0,"byteOffset":41208,"byteLength":3064,"target":34962},{"buffer":0,"byteOffset":44272,"byteLength":2544,"target":34963},{"buffer":0,"byteOffset":46816,"byteLength":4692,"target":34962},{"buffer":0,"byteOffset":51508,"byteLength":4692,"target":34962},{"buffer":0,"byteOffset":56200,"byteLength":3128,"target":34962},{"buffer":0,"byteOffset":59328,"byteLength":2544,"target":34963},{"buffer":0,"byteOffset":61872,"byteLength":4584,"target":34962},{"buffer":0,"byteOffset":66456,"byteLength":4584,"target":34962},{"buffer":0,"byteOffset":71040,"byteLength":3056,"target":34962},{"buffer":0,"byteOffset":74096,"byteLength":2544,"target":34963},{"buffer":0,"byteOffset":76640,"byteLength":4596,"target":34962},{"buffer":0,"byteOffset":81236,"byteLength":4596,"target":34962},{"buffer":0,"byteOffset":85832,"byteLength":3064,"target":34962},{"buffer":0,"byteOffset":88896,"byteLength":2544,"target":34963},{"buffer":0,"byteOffset":91440,"byteLength":4596,"target":34962},{"buffer":0,"byteOffset":96036,"byteLength":4596,"target":34962},{"buffer":0,"byteOffset":100632,"byteLength":3064,"target":34962},{"buffer":0,"byteOffset":103696,"byteLength":5088,"target":34963},{"buffer":0,"byteOffset":108784,"byteLength":9768,"target":34962},{"buffer":0,"byteOffset":118552,"byteLength":9768,"target":34962},{"buffer":0,"byteOffset":128320,"byteLength":6512,"target":34962}],"scene":0,"scenes":[{"nodes":[0,1,2,3,4,5,6,7,8],"name":"tableau"}],"extensionsUsed":["KHR_texture_transform","KHR_lights_punctual"],"extensionsRequired":["KHR_lights_punctual"],"buffers":[{"byteLength":134832,"uri":"tableau.bin"}]}